<svg width="16" height="16" viewBox="0 0 16 16" fill="none" xmlns="http://www.w3.org/2000/svg">
<path d="M15 8C15 11.864 11.8675 15 8 15C4.1325 15 1 11.864 1 8C1 4.1325 4.1325 1 8 1C11.8675 1 15 4.1325 15 8Z" fill="#283544"/>
<path d="M11.2811 6.22869C11.2429 6.25098 10.3335 6.72124 10.3335 7.76393C10.3764 8.95305 11.4811 9.37006 11.5 9.37006C11.4811 9.39234 11.3332 9.93814 10.8953 10.5103C10.5478 11.0031 10.1621 11.5 9.57639 11.5C9.01925 11.5 8.81925 11.1715 8.17639 11.1715C7.48601 11.1715 7.29067 11.5 6.7621 11.5C6.17638 11.5 5.7621 10.9765 5.39564 10.4883C4.91955 9.8493 4.51489 8.84655 4.5006 7.88374C4.49098 7.37353 4.59594 6.87202 4.86241 6.44603C5.23849 5.85132 5.90992 5.44762 6.64316 5.43431C7.20496 5.41665 7.70496 5.79373 8.04782 5.79373C8.37639 5.79373 8.99068 5.43431 9.68571 5.43431C9.98571 5.4346 10.7857 5.51881 11.2811 6.22869ZM8.0003 5.33244C7.9003 4.86652 8.17639 4.40059 8.43353 4.10339C8.7621 3.74396 9.28105 3.5 9.72857 3.5C9.75714 3.96592 9.57608 4.42288 9.25248 4.75568C8.96211 5.11511 8.4621 5.38569 8.0003 5.33244Z" fill="white"/>
</svg>
