<svg width="16" height="16" viewBox="0 0 16 16" fill="none" xmlns="http://www.w3.org/2000/svg">
<g clip-path="url(#clip0_13813_217)">
<path fill-rule="evenodd" clip-rule="evenodd" d="M0.729657 4.92307H0.0527344L0.448339 5.61757H1.12526L0.729657 4.92307Z" fill="#333333"/>
<path fill-rule="evenodd" clip-rule="evenodd" d="M5.74987 7.09449L5.60042 6.81317L5.14328 6.03076L4.64218 6.03955L4.77405 6.27691L3.49053 6.2857L3.20921 5.80219L2.26855 5.81098L7.35866 13.811L9.26636 10.4L7.73669 7.77142L7.57844 7.49889L7.2268 6.8923L5.74987 7.09449Z" fill="#333333" stroke="#333333" stroke-width="0.351648" stroke-linecap="round" stroke-linejoin="round"/>
<path d="M10.4882 6.32087C10.8926 5.62637 11.297 4.93186 11.6926 4.23736C11.7805 4.08791 11.886 4.02637 12.0619 4.02637C13.2399 4.03516 14.4179 4.02637 15.5871 4.02637C15.9212 4.02637 16.0091 4.15824 15.8685 4.46593C15.4992 5.0901 15.1212 5.70549 14.7871 6.34725C14.3915 7.02417 13.9959 7.6923 13.6003 8.36922C12.73 9.88131 11.8597 11.3934 10.9805 12.8967C10.5498 13.6176 10.1278 14.3385 9.63548 15.0242C9.52999 15.1736 9.4157 15.3231 9.29263 15.4549C8.97614 15.789 8.71241 15.789 8.39592 15.4461C8.24647 15.2879 7.76296 14.5846 8.0179 14.9978C7.60471 14.3472 7.10362 13.6088 6.69043 12.9582C6.8223 12.6505 8.27285 10.0308 8.65087 9.37142C8.69482 9.32747 9.93438 7.27911 10.4882 6.32087Z" fill="#F4DD4B"/>
<path fill-rule="evenodd" clip-rule="evenodd" d="M6.69922 12.9582L8.70361 9.27473L8.15856 8.36044" fill="#2C3437"/>
<path fill-rule="evenodd" clip-rule="evenodd" d="M2.75111 3.75385L2.18848 3.76264L2.53133 4.32527H2.73353L3.05002 4.85275L3.97309 4.83516L3.41046 3.9033L2.84782 3.92088L2.75111 3.75385Z" fill="#333333" stroke="#333333" stroke-width="0.351648" stroke-linecap="round" stroke-linejoin="round"/>
<path fill-rule="evenodd" clip-rule="evenodd" d="M2.67201 1.03738L2.11816 1.04618L2.45223 1.60002L3.00608 1.59123L2.67201 1.03738Z" fill="#333333" stroke="#333333" stroke-width="0.351648" stroke-linecap="round" stroke-linejoin="round"/>
<path fill-rule="evenodd" clip-rule="evenodd" d="M1.68761 1.81979L1.22168 1.82858L1.503 2.28573L1.96893 2.27694L1.68761 1.81979Z" fill="#333333" stroke="#333333" stroke-width="0.351648" stroke-linecap="round" stroke-linejoin="round"/>
<path fill-rule="evenodd" clip-rule="evenodd" d="M3.65732 0.0967102L3.27051 0.105501L3.47271 0.439567L3.85952 0.430776L3.65732 0.0967102Z" fill="#333333" stroke="#333333" stroke-width="0.351648" stroke-linecap="round" stroke-linejoin="round"/>
<path fill-rule="evenodd" clip-rule="evenodd" d="M2.75988 2.61978L2.26758 2.63736L2.52252 3.05934L3.01483 3.04176L2.75988 2.61978Z" fill="#333333" stroke="#333333" stroke-width="0.351648" stroke-linecap="round" stroke-linejoin="round"/>
<path fill-rule="evenodd" clip-rule="evenodd" d="M5.15177 2.89232L4.36056 2.9099L4.22869 2.69891L3.5166 2.7165L3.89462 3.33188L4.37814 3.32309L4.74737 3.92968L5.76715 3.9121L5.15177 2.89232Z" fill="#333333" stroke="#333333" stroke-width="0.351648" stroke-linecap="round" stroke-linejoin="round"/>
<path fill-rule="evenodd" clip-rule="evenodd" d="M4.31657 1.52087L3.63086 1.53846L3.9913 2.13626L4.67701 2.11868L4.31657 1.52087Z" fill="#333333" stroke="#333333" stroke-width="0.351648" stroke-linecap="round" stroke-linejoin="round"/>
<path fill-rule="evenodd" clip-rule="evenodd" d="M1.28328 0.263733L0.966797 0.272524L1.13383 0.545052L1.45031 0.53626L1.28328 0.263733Z" fill="#333333" stroke="#333333" stroke-width="0.351648" stroke-linecap="round" stroke-linejoin="round"/>
<path fill-rule="evenodd" clip-rule="evenodd" d="M6.50519 5.01099L5.24805 5.03736L5.50299 5.44176H5.88101L6.11838 5.81978L6.98871 5.80219L6.50519 5.01099Z" fill="#333333" stroke="#333333" stroke-width="0.351648" stroke-linecap="round" stroke-linejoin="round"/>
<path fill-rule="evenodd" clip-rule="evenodd" d="M1.57334 2.85715L1.18652 2.86594L1.38872 3.2L1.77553 3.19121L1.57334 2.85715Z" fill="#333333" stroke="#333333" stroke-width="0.351648" stroke-linecap="round" stroke-linejoin="round"/>
</g>
<defs>
<clipPath id="clip0_13813_217">
<rect width="16" height="15.7363" fill="white"/>
</clipPath>
</defs>
</svg>
