<svg width="14" height="14" viewBox="0 0 14 14" fill="none" xmlns="http://www.w3.org/2000/svg">
<path fill-rule="evenodd" clip-rule="evenodd" d="M6.33301 0.333313C3.0193 0.333313 0.333008 3.0196 0.333008 6.33331C0.333008 9.64702 3.0193 12.3333 6.33301 12.3333C7.74968 12.3333 9.05169 11.8423 10.0781 11.0212L12.5283 13.4714C12.7886 13.7317 13.2107 13.7317 13.4711 13.4714C13.7314 13.211 13.7314 12.7889 13.4711 12.5286L11.0209 10.0784C11.842 9.05199 12.333 7.74999 12.333 6.33331C12.333 3.0196 9.64672 0.333313 6.33301 0.333313ZM1.66634 6.33331C1.66634 3.75598 3.75568 1.66665 6.33301 1.66665C8.91034 1.66665 10.9997 3.75598 10.9997 6.33331C10.9997 8.91064 8.91034 11 6.33301 11C3.75568 11 1.66634 8.91064 1.66634 6.33331Z" fill="#6E7B83"/>
</svg>
