<svg width="81" height="24" viewBox="0 0 81 24" fill="none" xmlns="http://www.w3.org/2000/svg">
<g clip-path="url(#clip0_13226_1011)">
<mask id="mask0_13226_1011" style="mask-type:luminance" maskUnits="userSpaceOnUse" x="0" y="0" width="81" height="24">
<path d="M80.1 0.0932369H0V23.9068H80.1V0.0932369Z" fill="white"/>
</mask>
<g mask="url(#mask0_13226_1011)">
<path d="M70.4946 23.7197C70.2875 23.7197 70.0942 23.6641 69.9147 23.5668L68.0785 22.4693C67.8024 22.3166 67.9404 22.261 68.0233 22.2332C68.3961 22.1082 68.465 22.0804 68.8516 21.8581C68.893 21.8303 68.9483 21.8442 68.9897 21.872L70.398 22.7194C70.4532 22.7472 70.5222 22.7472 70.5636 22.7194L76.0725 19.5103C76.1273 19.4825 76.1554 19.427 76.1554 19.3575V12.9532C76.1554 12.8837 76.1273 12.8282 76.0725 12.8004L70.5636 9.60519C70.5084 9.57741 70.4393 9.57741 70.398 9.60519L64.8893 12.8004C64.834 12.8282 64.8064 12.8977 64.8064 12.9532V19.3575C64.8064 19.4131 64.834 19.4825 64.8893 19.5103L66.3941 20.3855C67.2087 20.8023 67.7195 20.3161 67.7195 19.8298V13.5089C67.7195 13.4255 67.7885 13.3422 67.8852 13.3422H68.5893C68.6722 13.3422 68.755 13.4117 68.755 13.5089V19.8298C68.755 20.9273 68.1613 21.5664 67.1259 21.5664C66.8083 21.5664 66.5598 21.5664 65.8557 21.219L64.406 20.3855C64.0471 20.1772 63.8262 19.7881 63.8262 19.3714V12.9671C63.8262 12.5503 64.0471 12.1614 64.406 11.953L69.9147 8.74393C70.2599 8.54939 70.7293 8.54939 71.0744 8.74393L76.5834 11.953C76.942 12.1614 77.1628 12.5503 77.1628 12.9671V19.3714C77.1628 19.7881 76.942 20.1772 76.5834 20.3855L71.0744 23.5946C70.9087 23.6641 70.7017 23.7197 70.4946 23.7197Z" fill="#5FA04E"/>
<path d="M72.2069 19.3158C69.7904 19.3158 69.2935 18.2045 69.2935 17.2598C69.2935 17.1765 69.3624 17.0931 69.4591 17.0931H70.177C70.2599 17.0931 70.3289 17.1487 70.3289 17.232C70.4393 17.9683 70.7569 18.3295 72.2206 18.3295C73.3802 18.3295 73.8774 18.0656 73.8774 17.4404C73.8774 17.0792 73.7389 16.8152 71.9304 16.6347C70.4255 16.4818 69.4867 16.1484 69.4867 14.9398C69.4867 13.8146 70.4255 13.1477 71.9995 13.1477C73.767 13.1477 74.6366 13.759 74.747 15.0926C74.747 15.1343 74.7333 15.176 74.7058 15.2176C74.6777 15.2454 74.6366 15.2733 74.5947 15.2733H73.863C73.7944 15.2733 73.7252 15.2176 73.7114 15.1482C73.5455 14.3841 73.1176 14.134 71.9857 14.134C70.7155 14.134 70.5636 14.5786 70.5636 14.912C70.5636 15.3149 70.7431 15.4399 72.4551 15.6622C74.1531 15.8845 74.9541 16.204 74.9541 17.3987C74.9541 18.6212 73.946 19.3158 72.2069 19.3158Z" fill="#5FA04E"/>
<path d="M80.1598 12.5921C80.1598 13.1755 79.6763 13.6617 79.0962 13.6617C78.5167 13.6617 78.0332 13.1894 78.0332 12.5921C78.0332 11.9808 78.5304 11.5223 79.0962 11.5223C79.6626 11.5223 80.1598 11.9947 80.1598 12.5921ZM78.1992 12.5921C78.1992 13.0921 78.5997 13.495 79.0824 13.495C79.5796 13.495 79.9801 13.0783 79.9801 12.5921C79.9801 12.0919 79.5796 11.7029 79.0824 11.7029C78.6134 11.7029 78.1992 12.0919 78.1992 12.5921ZM78.6964 11.9947H79.1106C79.2484 11.9947 79.5248 11.9947 79.5248 12.3142C79.5248 12.5365 79.3862 12.5781 79.3033 12.6059C79.4692 12.6198 79.4829 12.731 79.4967 12.8837C79.5104 12.981 79.5248 13.1477 79.5522 13.2033H79.3033C79.3033 13.1477 79.2621 12.8421 79.2621 12.8282C79.2484 12.7588 79.221 12.731 79.138 12.731H78.9309V13.2172H78.6964V11.9947ZM78.9172 12.5226H79.0962C79.2484 12.5226 79.2758 12.4114 79.2758 12.3559C79.2758 12.1892 79.1654 12.1892 79.0962 12.1892H78.9035V12.5226H78.9172Z" fill="#5FA04E"/>
<path fill-rule="evenodd" clip-rule="evenodd" d="M13.1021 12.6795C13.1021 12.4295 12.9641 12.1933 12.7432 12.0682L6.90313 8.66472C6.80649 8.60915 6.69604 8.58137 6.58558 8.56744C6.57178 8.56744 6.53036 8.56744 6.53036 8.56744C6.41991 8.56744 6.30946 8.60915 6.21282 8.66472L0.358963 12.0544C0.138063 12.1794 0 12.4156 0 12.6795L0.0138063 21.7927C0.0138063 21.9178 0.0828378 22.0429 0.193288 22.0984C0.303738 22.1678 0.441801 22.1678 0.538445 22.0984L4.01762 20.0979C4.23852 19.9729 4.37659 19.7368 4.37659 19.4867V15.2218C4.37659 14.9718 4.51465 14.7356 4.73555 14.6105L6.21282 13.7492C6.32327 13.6798 6.44752 13.652 6.57178 13.652C6.69604 13.652 6.82029 13.6798 6.91694 13.7492L8.39419 14.6105C8.61508 14.7356 8.7532 14.9718 8.7532 15.2218V19.4867C8.7532 19.7368 8.89125 19.9729 9.11213 20.0979L12.5637 22.0984C12.6741 22.1678 12.8122 22.1678 12.9227 22.0984C13.0331 22.0429 13.1021 21.9178 13.1021 21.7927V12.6795Z" fill="#333333"/>
<path fill-rule="evenodd" clip-rule="evenodd" d="M41.2392 0.134889C41.1288 0.07932 40.9907 0.07932 40.894 0.134889C40.7836 0.204349 40.7146 0.315487 40.7146 0.440516V9.4704C40.7146 9.55374 40.6731 9.63709 40.5903 9.69273C40.5074 9.73437 40.4247 9.73437 40.3418 9.69273L38.8783 8.84526C38.6574 8.72027 38.3951 8.72027 38.1742 8.84526L32.3204 12.2489C32.0995 12.3739 31.9614 12.61 31.9614 12.8601V19.6533C31.9614 19.9035 32.0995 20.1396 32.3204 20.2646L38.1742 23.6682C38.3951 23.7932 38.6574 23.7932 38.8783 23.6682L44.7322 20.2646C44.9531 20.1396 45.0912 19.9035 45.0912 19.6533V2.71883C45.0912 2.45488 44.9531 2.21871 44.7322 2.09368L41.2392 0.134889ZM40.7008 17.4168C40.7008 17.4862 40.6731 17.5417 40.6179 17.5695L38.616 18.7365C38.5608 18.7643 38.4917 18.7643 38.4365 18.7365L36.4346 17.5695C36.3794 17.5417 36.3518 17.4723 36.3518 17.4168V15.0829C36.3518 15.0134 36.3794 14.9578 36.4346 14.93L38.4365 13.7631C38.4917 13.7353 38.5608 13.7353 38.616 13.7631L40.6179 14.93C40.6731 14.9578 40.7008 15.0273 40.7008 15.0829V17.4168Z" fill="#333333"/>
<path fill-rule="evenodd" clip-rule="evenodd" d="M60.7196 15.0273C60.9405 14.9023 61.0647 14.6661 61.0647 14.416V12.7629C61.0647 12.5128 60.9267 12.2767 60.7196 12.1516L54.9071 8.76193C54.6862 8.63694 54.4239 8.63694 54.203 8.76193L48.3492 12.1655C48.1283 12.2906 47.9902 12.5267 47.9902 12.7768V19.57C47.9902 19.8201 48.1283 20.0562 48.3492 20.1813L54.1616 23.5154C54.3825 23.6405 54.6448 23.6405 54.8519 23.5154L58.3725 21.5427C58.483 21.4871 58.552 21.3622 58.552 21.2371C58.552 21.112 58.483 20.9871 58.3725 20.9315L52.4911 17.5279C52.3806 17.4584 52.3116 17.3473 52.3116 17.2223V15.0968C52.3116 14.9718 52.3806 14.8467 52.4911 14.7911L54.3273 13.7353C54.4378 13.6659 54.5758 13.6659 54.6862 13.7353L56.5225 14.7911C56.633 14.8606 56.7019 14.9718 56.7019 15.0968V16.7638C56.7019 16.8888 56.771 17.0139 56.8815 17.0695C56.9919 17.1389 57.1299 17.1389 57.2404 17.0695L60.7196 15.0273Z" fill="#333333"/>
<path fill-rule="evenodd" clip-rule="evenodd" d="M54.4656 14.7078C54.507 14.68 54.5623 14.68 54.6037 14.7078L55.722 15.3607C55.7634 15.3885 55.791 15.4301 55.791 15.4857V16.7916C55.791 16.8472 55.7634 16.8888 55.722 16.9166L54.6037 17.5695C54.5623 17.5973 54.507 17.5973 54.4656 17.5695L53.3473 16.9166C53.3059 16.8888 53.2783 16.8472 53.2783 16.7916V15.4857C53.2783 15.4301 53.3059 15.3885 53.3473 15.3607L54.4656 14.7078Z" fill="#5FA04E"/>
<path d="M22.8906 8.78969C22.6696 8.6647 22.4073 8.6647 22.1864 8.78969L16.374 12.1655C16.1531 12.2906 16.0288 12.5267 16.0288 12.7768V19.5422C16.0288 19.7923 16.1669 20.0284 16.374 20.1535L22.1864 23.5293C22.4073 23.6543 22.6696 23.6543 22.8906 23.5293L28.7029 20.1535C28.9239 20.0284 29.0481 19.7923 29.0481 19.5422V12.7768C29.0481 12.5267 28.91 12.2906 28.7029 12.1655L22.8906 8.78969Z" fill="url(#paint0_linear_13226_1011)"/>
<path d="M28.7165 12.1655L22.8765 8.78968C22.8212 8.7619 22.7522 8.73412 22.6969 8.72019L16.1528 19.9867C16.208 20.0562 16.277 20.1118 16.3461 20.1535L22.1862 23.5292C22.3518 23.6265 22.5451 23.6543 22.7246 23.5987L28.8684 12.2905C28.827 12.2349 28.7717 12.1933 28.7165 12.1655Z" fill="url(#paint1_linear_13226_1011)"/>
<path d="M21.993 7.55333L21.9102 7.59497H22.0206L21.993 7.55333Z" fill="url(#paint2_linear_13226_1011)"/>
<path d="M28.7169 20.1535C28.8825 20.0562 29.0068 19.8895 29.062 19.7089L22.6697 8.70635C22.5041 8.67857 22.3245 8.69249 22.1727 8.7897L16.374 12.1516L22.6282 23.6265C22.7111 23.6127 22.8078 23.5849 22.8906 23.5432L28.7169 20.1535Z" fill="url(#paint3_linear_13226_1011)"/>
<path d="M29.269 20.0424L29.2275 19.9729V20.0701L29.269 20.0424Z" fill="url(#paint4_linear_13226_1011)"/>
<path d="M28.717 20.1535L22.8907 23.5292C22.8079 23.571 22.725 23.5987 22.6284 23.6127L22.7388 23.821L29.2002 20.0562V19.9729L29.0345 19.6951C29.0207 19.8895 28.8964 20.0562 28.717 20.1535Z" fill="url(#paint5_linear_13226_1011)"/>
<path d="M28.717 20.1535L22.8907 23.5292C22.8079 23.571 22.725 23.5987 22.6284 23.6127L22.7388 23.821L29.2002 20.0562V19.9729L29.0345 19.6951C29.0207 19.8895 28.8964 20.0562 28.717 20.1535Z" fill="url(#paint6_linear_13226_1011)"/>
</g>
</g>
<defs>
<linearGradient id="paint0_linear_13226_1011" x1="24.9057" y1="11.3038" x2="19.5976" y2="22.0654" gradientUnits="userSpaceOnUse">
<stop stop-color="#3F873F"/>
<stop offset="0.3296" stop-color="#3F8B3D"/>
<stop offset="0.6367" stop-color="#3E9638"/>
<stop offset="0.9341" stop-color="#3DA92E"/>
<stop offset="1" stop-color="#3DAE2B"/>
</linearGradient>
<linearGradient id="paint1_linear_13226_1011" x1="21.6548" y1="16.9494" x2="36.4654" y2="6.07427" gradientUnits="userSpaceOnUse">
<stop offset="0.1376" stop-color="#3F873F"/>
<stop offset="0.4016" stop-color="#52A044"/>
<stop offset="0.7129" stop-color="#64B749"/>
<stop offset="0.9081" stop-color="#6ABF4B"/>
</linearGradient>
<linearGradient id="paint2_linear_13226_1011" x1="15.8158" y1="7.56964" x2="29.2651" y2="7.56964" gradientUnits="userSpaceOnUse">
<stop offset="0.0919165" stop-color="#6ABF4B"/>
<stop offset="0.2871" stop-color="#64B749"/>
<stop offset="0.5984" stop-color="#52A044"/>
<stop offset="0.8624" stop-color="#3F873F"/>
</linearGradient>
<linearGradient id="paint3_linear_13226_1011" x1="15.8158" y1="16.1574" x2="29.2654" y2="16.1574" gradientUnits="userSpaceOnUse">
<stop offset="0.0919165" stop-color="#6ABF4B"/>
<stop offset="0.2871" stop-color="#64B749"/>
<stop offset="0.5984" stop-color="#52A044"/>
<stop offset="0.8624" stop-color="#3F873F"/>
</linearGradient>
<linearGradient id="paint4_linear_13226_1011" x1="15.815" y1="20.0209" x2="29.2653" y2="20.0209" gradientUnits="userSpaceOnUse">
<stop offset="0.0919165" stop-color="#6ABF4B"/>
<stop offset="0.2871" stop-color="#64B749"/>
<stop offset="0.5984" stop-color="#52A044"/>
<stop offset="0.8624" stop-color="#3F873F"/>
</linearGradient>
<linearGradient id="paint5_linear_13226_1011" x1="15.8159" y1="21.767" x2="29.2655" y2="21.767" gradientUnits="userSpaceOnUse">
<stop offset="0.0919165" stop-color="#6ABF4B"/>
<stop offset="0.2871" stop-color="#64B749"/>
<stop offset="0.5984" stop-color="#52A044"/>
<stop offset="0.8624" stop-color="#3F873F"/>
</linearGradient>
<linearGradient id="paint6_linear_13226_1011" x1="31.225" y1="10.9841" x2="22.8469" y2="27.9698" gradientUnits="userSpaceOnUse">
<stop stop-color="#3F873F"/>
<stop offset="0.3296" stop-color="#3F8B3D"/>
<stop offset="0.6367" stop-color="#3E9638"/>
<stop offset="0.9341" stop-color="#3DA92E"/>
<stop offset="1" stop-color="#3DAE2B"/>
</linearGradient>
<clipPath id="clip0_13226_1011">
<rect width="80.1" height="24" fill="white"/>
</clipPath>
</defs>
</svg>
